<svg xmlns="http://www.w3.org/2000/svg" xmlns:xlink="http://www.w3.org/1999/xlink" viewBox="0,0,256,256" width="96px" height="96px"><g fill="#ea6c20" fill-rule="nonzero" stroke="none" stroke-width="1" stroke-linecap="butt" stroke-linejoin="miter" stroke-miterlimit="10" stroke-dasharray="" stroke-dashoffset="0" font-family="none" font-weight="none" font-size="none" text-anchor="none" style="mix-blend-mode: normal"><g transform="scale(8,8)"><path d="M6,3v26h20v-19.40625l-0.28125,-0.3125l-6,-6l-0.3125,-0.28125zM8,5h10v6h6v16h-16zM20,6.4375l2.5625,2.5625h-2.5625zM21.09375,14c-0.55078,0 -1,0.44922 -1,1c0,0.55078 0.44922,1 1,1c0.55078,0 1,-0.44922 1,-1c0,-0.55078 -0.44922,-1 -1,-1zM14,15.59375l-0.71875,0.6875l-4,4l1.4375,1.4375l3.28125,-3.28125l2.28125,2.28125l0.71875,0.6875l0.71875,-0.6875l1.28125,-1.28125l2.28125,2.28125l1.4375,-1.4375l-3,-3l-0.71875,-0.6875l-0.71875,0.6875l-1.28125,1.28125l-2.28125,-2.28125z"></path></g></g></svg>