<svg xmlns="http://www.w3.org/2000/svg" xmlns:xlink="http://www.w3.org/1999/xlink" viewBox="0,0,256,256" width="96px" height="96px"><g fill="#94d82d" fill-rule="nonzero" stroke="none" stroke-width="1" stroke-linecap="butt" stroke-linejoin="miter" stroke-miterlimit="10" stroke-dasharray="" stroke-dashoffset="0" font-family="none" font-weight="none" font-size="none" text-anchor="none" style="mix-blend-mode: normal"><g transform="scale(8,8)"><path d="M16,3c-7.16797,0 -13,5.83203 -13,13c0,7.16797 5.83203,13 13,13c7.16797,0 13,-5.83203 13,-13c0,-7.16797 -5.83203,-13 -13,-13zM16,5c6.08594,0 11,4.91406 11,11c0,6.08594 -4.91406,11 -11,11c-6.08594,0 -11,-4.91406 -11,-11c0,-6.08594 4.91406,-11 11,-11zM22.28125,11.28125l-7.28125,7.28125l-4.28125,-4.28125l-1.4375,1.4375l5,5l0.71875,0.6875l0.71875,-0.6875l8,-8z"></path></g></g></svg>